<?xml version="1.0" encoding="UTF-8" standalone="no"?><svg xmlns="http://www.w3.org/2000/svg" xmlns:xlink="http://www.w3.org/1999/xlink"><symbol id="trash" xmlns="http://www.w3.org/2000/svg" viewBox="0 0 448 512"><path d="M268 416h24a12 12 0 0 0 12-12V188a12 12 0 0 0-12-12h-24a12 12 0 0 0-12 12v216a12 12 0 0 0 12 12zM432 80h-82.41l-34-56.7A48 48 0 0 0 274.41 0H173.59a48 48 0 0 0-41.16 23.3L98.41 80H16A16 16 0 0 0 0 96v16a16 16 0 0 0 16 16h16v336a48 48 0 0 0 48 48h288a48 48 0 0 0 48-48V128h16a16 16 0 0 0 16-16V96a16 16 0 0 0-16-16zM171.84 50.91A6 6 0 0 1 177 48h94a6 6 0 0 1 5.15 2.91L293.61 80H154.39zM368 464H80V128h288zm-212-48h24a12 12 0 0 0 12-12V188a12 12 0 0 0-12-12h-24a12 12 0 0 0-12 12v216a12 12 0 0 0 12 12z"></path></symbol><symbol id="restore" xmlns="http://www.w3.org/2000/svg" fill="currentColor" viewBox="0 0 24 24"><path fill="none" d="M0 0h24v24H0V0z"></path><path d="M13 3c-4.97 0-9 4.03-9 9H1l4 3.99L9 12H6c0-3.87 3.13-7 7-7s7 3.13 7 7-3.13 7-7 7c-1.93 0-3.68-.79-4.94-2.06l-1.42 1.42C8.27 19.99 10.51 21 13 21c4.97 0 9-4.03 9-9s-4.03-9-9-9zm-1 5v5l4.25 2.52.77-1.28-3.52-2.09V8z"></path></symbol><symbol id="chart-line" xmlns="http://www.w3.org/2000/svg" viewBox="0 0 640 640"><path d="M128 128C128 110.3 113.7 96 96 96C78.3 96 64 110.3 64 128L64 464C64 508.2 99.8 544 144 544L544 544C561.7 544 576 529.7 576 512C576 494.3 561.7 480 544 480L144 480C135.2 480 128 472.8 128 464L128 128zM534.6 214.6C547.1 202.1 547.1 181.8 534.6 169.3C522.1 156.8 501.8 156.8 489.3 169.3L384 274.7L326.6 217.4C314.1 204.9 293.8 204.9 281.3 217.4L185.3 313.4C172.8 325.9 172.8 346.2 185.3 358.7C197.8 371.2 218.1 371.2 230.6 358.7L304 285.3L361.4 342.7C373.9 355.2 394.2 355.2 406.7 342.7L534.7 214.7z"></path></symbol><symbol id="calendar" xmlns="http://www.w3.org/2000/svg" viewBox="0 0 448 512"><path d="M400 64h-48V12c0-6.6-5.4-12-12-12h-40c-6.6 0-12 5.4-12 12v52H160V12c0-6.6-5.4-12-12-12h-40c-6.6 0-12 5.4-12 12v52H48C21.5 64 0 85.5 0 112v352c0 26.5 21.5 48 48 48h352c26.5 0 48-21.5 48-48V112c0-26.5-21.5-48-48-48zm-6 400H54c-3.3 0-6-2.7-6-6V160h352v298c0 3.3-2.7 6-6 6z"></path></symbol><symbol id="caret-up" xmlns="http://www.w3.org/2000/svg" viewBox="0 0 640 640"><path d="M300.3 199.2C312.9 188.9 331.4 189.7 343.1 201.4L471.1 329.4C480.3 338.6 483 352.3 478 364.3C473 376.3 461.4 384 448.5 384L192.5 384C179.6 384 167.9 376.2 162.9 364.2C157.9 352.2 160.7 338.5 169.9 329.4L297.9 201.4L300.3 199.2z"></path></symbol><symbol id="wallet" xmlns="http://www.w3.org/2000/svg" viewBox="0 0 640 640"><path d="M128 96C92.7 96 64 124.7 64 160L64 448C64 483.3 92.7 512 128 512L512 512C547.3 512 576 483.3 576 448L576 256C576 220.7 547.3 192 512 192L136 192C122.7 192 112 181.3 112 168C112 154.7 122.7 144 136 144L520 144C533.3 144 544 133.3 544 120C544 106.7 533.3 96 520 96L128 96zM480 320C497.7 320 512 334.3 512 352C512 369.7 497.7 384 480 384C462.3 384 448 369.7 448 352C448 334.3 462.3 320 480 320z"></path></symbol><symbol id="piggy-bank" xmlns="http://www.w3.org/2000/svg" viewBox="0 0 576 512"><path d="M560 224h-29.5c-8.8-20-21.6-37.7-37.4-52.5L512 96h-32c-29.4 0-55.4 13.5-73 34.3-7.6-1.1-15.1-2.3-23-2.3H256c-77.4 0-141.9 55-156.8 128H56c-14.8 0-26.5-13.5-23.5-28.8C34.7 215.8 45.4 208 57 208h1c3.3 0 6-2.7 6-6v-20c0-3.3-2.7-6-6-6-28.5 0-53.9 20.4-57.5 48.6C-3.9 258.8 22.7 288 56 288h40c0 52.2 25.4 98.1 64 127.3V496c0 8.8 7.2 16 16 16h64c8.8 0 16-7.2 16-16v-48h128v48c0 8.8 7.2 16 16 16h64c8.8 0 16-7.2 16-16v-80.7c11.8-8.9 22.3-19.4 31.3-31.3H560c8.8 0 16-7.2 16-16V240c0-8.8-7.2-16-16-16zm-128 64c-8.8 0-16-7.2-16-16s7.2-16 16-16 16 7.2 16 16-7.2 16-16 16zM256 96h128c5.4 0 10.7.4 15.9.8 0-.3.1-.5.1-.8 0-53-43-96-96-96s-96 43-96 96c0 2.1.5 4.1.6 6.2 15.2-3.9 31-6.2 47.4-6.2z"></path></symbol></svg>